<svg width="212" height="212" viewBox="0 0 212 212" fill="none" xmlns="http://www.w3.org/2000/svg">
<circle cx="106" cy="106" r="106" fill="black"/>
<path d="M147.71 124.843C142.395 119.678 135.945 115.556 128.767 112.737C121.588 109.918 113.837 108.462 106 108.462C98.1635 108.462 90.4119 109.918 83.2333 112.737C76.0548 115.556 69.605 119.678 64.29 124.843C63.4694 125.657 63.0104 126.712 63 127.809V145.609C63.0174 146.779 63.5478 147.896 64.4764 148.718C65.405 149.539 66.657 150 67.9615 150H144.038C145.354 150 146.616 149.531 147.547 148.697C148.477 147.862 149 146.73 149 145.55V127.75C148.974 126.673 148.516 125.641 147.71 124.843Z" fill="white"/>
<path d="M106 102.533C118.787 102.533 129.154 93.2357 129.154 81.7666C129.154 70.2975 118.787 61 106 61C93.2125 61 82.8461 70.2975 82.8461 81.7666C82.8461 93.2357 93.2125 102.533 106 102.533Z" fill="white"/>
</svg>
