<svg width="828" height="792" viewBox="0 0 828 792" fill="none" xmlns="http://www.w3.org/2000/svg">
<rect width="828" height="792" fill="#232323"/>
<circle cx="431.5" cy="380.5" r="215.5" fill="white"/>
<g opacity="0.4" filter="url(#filter0_f_100_21)">
<path d="M245.917 495.346L312.98 564.063C376.448 629.097 470.534 640.209 523.126 588.882L638.739 476.052C691.332 424.726 682.515 330.397 619.047 265.364L551.985 196.647C488.516 131.614 394.431 120.502 341.838 171.828L226.225 284.658C173.633 335.984 182.449 430.313 245.917 495.346Z" fill="url(#paint0_radial_100_21)" fill-opacity="0.8"/>
</g>
<g opacity="0.4" filter="url(#filter1_f_100_21)">
<path d="M409.097 496H410.903C510.92 496 592 438.444 592 367.445V299.555C592 228.556 510.92 171 410.903 171H409.097C309.08 171 228 228.556 228 299.555V367.445C228 438.444 309.08 496 409.097 496Z" fill="url(#paint1_radial_100_21)"/>
</g>
<g opacity="0.4" filter="url(#filter2_f_100_21)">
<path d="M487.732 248.287C427.162 222.171 349.169 268.007 313.53 350.664C277.891 433.321 298.102 521.499 358.672 547.614L445.988 585.262C506.558 611.378 584.551 565.542 620.19 482.885C655.829 400.228 635.618 312.05 575.048 285.934L487.732 248.287Z" fill="url(#paint2_radial_100_21)"/>
</g>
<g filter="url(#filter3_d_100_21)">
<path fill-rule="evenodd" clip-rule="evenodd" d="M411.001 272.578C416.77 262.557 431.23 262.557 436.999 272.578L525.054 425.515C530.812 435.515 523.594 448 512.055 448H335.945C324.406 448 317.188 435.515 322.946 425.515L411.001 272.578Z" fill="white"/>
</g>
<path d="M407.546 259.5C414.859 246.833 433.141 246.833 440.454 259.5L537.449 427.5C544.762 440.167 535.621 456 520.995 456H327.005C312.379 456 303.238 440.167 310.551 427.5L407.546 259.5Z" fill="black"/>
<defs>
<filter id="filter0_f_100_21" x="131.894" y="79.5663" width="601.177" height="601.578" filterUnits="userSpaceOnUse" color-interpolation-filters="sRGB">
<feFlood flood-opacity="0" result="BackgroundImageFix"/>
<feBlend mode="normal" in="SourceGraphic" in2="BackgroundImageFix" result="shape"/>
<feGaussianBlur stdDeviation="30" result="effect1_foregroundBlur_100_21"/>
</filter>
<filter id="filter1_f_100_21" x="148" y="91" width="524" height="485" filterUnits="userSpaceOnUse" color-interpolation-filters="sRGB">
<feFlood flood-opacity="0" result="BackgroundImageFix"/>
<feBlend mode="normal" in="SourceGraphic" in2="BackgroundImageFix" result="shape"/>
<feGaussianBlur stdDeviation="40" result="effect1_foregroundBlur_100_21"/>
</filter>
<filter id="filter2_f_100_21" x="235.934" y="180.952" width="461.852" height="471.645" filterUnits="userSpaceOnUse" color-interpolation-filters="sRGB">
<feFlood flood-opacity="0" result="BackgroundImageFix"/>
<feBlend mode="normal" in="SourceGraphic" in2="BackgroundImageFix" result="shape"/>
<feGaussianBlur stdDeviation="30" result="effect1_foregroundBlur_100_21"/>
</filter>
<filter id="filter3_d_100_21" x="288.923" y="233.062" width="270.155" height="246.938" filterUnits="userSpaceOnUse" color-interpolation-filters="sRGB">
<feFlood flood-opacity="0" result="BackgroundImageFix"/>
<feColorMatrix in="SourceAlpha" type="matrix" values="0 0 0 0 0 0 0 0 0 0 0 0 0 0 0 0 0 0 127 0" result="hardAlpha"/>
<feOffset/>
<feGaussianBlur stdDeviation="16"/>
<feComposite in2="hardAlpha" operator="out"/>
<feColorMatrix type="matrix" values="0 0 0 0 0.737255 0 0 0 0 0.113725 0 0 0 0 0.619608 0 0 0 1 0"/>
<feBlend mode="normal" in2="BackgroundImageFix" result="effect1_dropShadow_100_21"/>
<feBlend mode="normal" in="SourceGraphic" in2="effect1_dropShadow_100_21" result="shape"/>
</filter>
<radialGradient id="paint0_radial_100_21" cx="0" cy="0" r="1" gradientUnits="userSpaceOnUse" gradientTransform="translate(432.481 380.356) rotate(-44.302) scale(213.832 212.546)">
<stop stop-color="#CC03FF"/>
<stop offset="1" stop-color="#962FB0" stop-opacity="0.4"/>
</radialGradient>
<radialGradient id="paint1_radial_100_21" cx="0" cy="0" r="1" gradientUnits="userSpaceOnUse" gradientTransform="translate(410.003 333.502) rotate(-90) scale(162.5 182)">
<stop stop-color="#016BE7"/>
<stop offset="1" stop-color="#016AE5" stop-opacity="0.4"/>
</radialGradient>
<radialGradient id="paint2_radial_100_21" cx="0" cy="0" r="1" gradientUnits="userSpaceOnUse" gradientTransform="translate(466.861 416.775) rotate(23.324) scale(166.975 162.983)">
<stop stop-color="#FF0080"/>
<stop offset="1" stop-color="#FF0080" stop-opacity="0.4"/>
</radialGradient>
</defs>
</svg>
